<?xml version="1.0" standalone="no"?>
<!DOCTYPE svg PUBLIC "-//W3C//DTD SVG 20010904//EN"
 "http://www.w3.org/TR/2001/REC-SVG-20010904/DTD/svg10.dtd">
<svg version="1.0" xmlns="http://www.w3.org/2000/svg"
 width="700.000000pt" height="700.000000pt" viewBox="0 0 700.000000 700.000000"
 preserveAspectRatio="xMidYMid meet">
<metadata>
Created by potrace 1.14, written by Peter Selinger 2001-2017
</metadata>
<g transform="translate(0.000000,700.000000) scale(0.100000,-0.100000)"
fill="#000000" stroke="none">
<path d="M685 6985 c-286 -52 -541 -269 -636 -541 -51 -146 -48 3 -46 -2969 1
-1524 6 -2782 10 -2796 57 -207 111 -307 234 -432 108 -110 249 -187 414 -226
83 -20 119 -20 2859 -18 1526 1 2786 5 2799 9 13 4 49 15 80 24 293 84 514
325 582 634 19 88 19 142 17 2862 -3 2958 0 2766 -42 2893 -87 268 -333 495
-597 551 -13 2 -44 9 -69 14 -27 5 -1155 9 -2790 8 -2189 0 -2759 -3 -2815
-13z"/>
</g>
</svg>
